<svg width="70" height="100" viewBox="0 0 70 100" fill="none" xmlns="http://www.w3.org/2000/svg">
<path fill-rule="evenodd" clip-rule="evenodd" d="M70 0H0V30V40V100H70V40V30V0ZM10.2741 48.2388V52.4716H13.4569V72.1591H18.1819V48.2388H10.2741ZM29.1841 62.6107C27.9372 63.77 26.2638 65.2247 24.1638 66.9747L22.4576 68.4185V71.831H38.6669V68.0247H28.9872C30.8904 66.406 32.4326 65.0278 33.6138 63.8904C34.795 62.731 35.845 61.3747 36.7638 59.8216C37.6826 58.2685 38.1419 56.6388 38.1419 54.9325C38.1419 52.7669 37.4747 51.0278 36.1404 49.7153C34.806 48.381 32.8919 47.7138 30.3982 47.7138C28.1232 47.7138 26.2419 48.3919 24.7544 49.7482C23.2888 51.1044 22.5122 53.095 22.4247 55.72H26.8872C26.9091 54.4513 27.2154 53.456 27.806 52.7341C28.3966 51.9903 29.2388 51.6185 30.3326 51.6185C31.4263 51.6185 32.2357 51.9357 32.7607 52.57C33.2857 53.2044 33.5482 54.0794 33.5482 55.195C33.5482 56.42 33.1325 57.6669 32.3013 58.9357C31.4701 60.2044 30.431 61.4294 29.1841 62.6107ZM42.2835 54.2107C42.2835 56.595 43.3772 58.356 45.5647 59.4935C44.3616 59.9966 43.421 60.7622 42.7429 61.7903C42.0647 62.7966 41.7256 63.9888 41.7256 65.3669C41.7256 66.8544 42.0975 68.156 42.8413 69.2716C43.6069 70.3653 44.635 71.2075 45.9257 71.7982C47.2382 72.3888 48.7147 72.6841 50.3553 72.6841C51.996 72.6841 53.4725 72.3888 54.785 71.7982C56.0975 71.2075 57.1257 70.3653 57.8694 69.2716C58.635 68.156 59.0179 66.8544 59.0179 65.3669C59.0179 63.9888 58.6788 62.7966 58.0007 61.7903C57.3225 60.7841 56.3819 60.0185 55.1788 59.4935C56.1632 58.9903 56.9507 58.2903 57.5413 57.3935C58.1319 56.4747 58.4272 55.4138 58.4272 54.2107C58.4272 53.0294 58.121 51.9575 57.5085 50.995C56.9178 50.0107 56.01 49.2341 54.785 48.6653C53.5819 48.0747 52.1053 47.7794 50.3553 47.7794C48.6053 47.7794 47.1179 48.0747 45.8929 48.6653C44.6897 49.2341 43.7819 50.0107 43.1694 50.995C42.5788 51.9575 42.2835 53.0294 42.2835 54.2107ZM52.9803 52.3732C53.6366 52.9638 53.9647 53.795 53.9647 54.8669C53.9647 55.8513 53.6257 56.6497 52.9475 57.2622C52.2694 57.8528 51.4054 58.1482 50.3553 58.1482C49.3054 58.1482 48.4413 57.8528 47.7632 57.2622C47.1069 56.6716 46.7788 55.8841 46.7788 54.8997C46.7788 53.806 47.096 52.9638 47.7303 52.3732C48.3866 51.7825 49.2616 51.4872 50.3553 51.4872C51.471 51.4872 52.346 51.7825 52.9803 52.3732ZM47.3038 62.4466C48.0913 61.8122 49.1085 61.495 50.3553 61.495C51.6022 61.495 52.6085 61.8232 53.3741 62.4794C54.1397 63.1138 54.5226 64.0107 54.5226 65.17C54.5226 66.2419 54.1507 67.1279 53.4069 67.8279C52.6631 68.5278 51.646 68.8779 50.3553 68.8779C49.0647 68.8779 48.0366 68.5388 47.271 67.8607C46.5272 67.1607 46.1553 66.2638 46.1553 65.17C46.1553 63.9888 46.5382 63.081 47.3038 62.4466ZM9.37946 82.8128C9.37946 82.0988 9.54398 81.4583 9.87299 80.8913C10.209 80.3243 10.6605 79.8833 11.2275 79.5683C11.8015 79.2463 12.4279 79.0853 13.107 79.0853C13.884 79.0853 14.5735 79.2778 15.1755 79.6628C15.7845 80.0408 16.2255 80.5798 16.4985 81.2798H15.06C14.871 80.8948 14.6085 80.6078 14.2725 80.4188C13.9365 80.2298 13.548 80.1353 13.107 80.1353C12.624 80.1353 12.1935 80.2438 11.8155 80.4608C11.4375 80.6778 11.14 80.9893 10.923 81.3953C10.713 81.8013 10.608 82.2738 10.608 82.8128C10.608 83.3518 10.713 83.8243 10.923 84.2303C11.14 84.6363 11.4375 84.9513 11.8155 85.1753C12.1935 85.3923 12.624 85.5008 13.107 85.5008C13.548 85.5008 13.9365 85.4063 14.2725 85.2173C14.6085 85.0283 14.871 84.7413 15.06 84.3563H16.4985C16.2255 85.0563 15.7845 85.5953 15.1755 85.9733C14.5735 86.3513 13.884 86.5403 13.107 86.5403C12.421 86.5403 11.7945 86.3828 11.2275 86.0678C10.6605 85.7458 10.209 85.3013 9.87299 84.7343C9.54398 84.1673 9.37946 83.5268 9.37946 82.8128ZM23.7901 86.4773L22.11 83.5583H21.1966V86.4773H19.9996V79.1798H22.5196C23.0796 79.1798 23.5521 79.2778 23.9371 79.4738C24.3291 79.6698 24.6196 79.9323 24.8086 80.2613C25.0045 80.5903 25.1025 80.9578 25.1025 81.3638C25.1025 81.8398 24.9626 82.2738 24.6826 82.6658C24.4096 83.0508 23.9861 83.3133 23.4121 83.4533L25.218 86.4773H23.7901ZM21.1966 82.6028H22.5196C22.9676 82.6028 23.3036 82.4908 23.5276 82.2668C23.7586 82.0428 23.8741 81.7418 23.8741 81.3638C23.8741 80.9858 23.7621 80.6918 23.5381 80.4818C23.3141 80.2648 22.9745 80.1563 22.5196 80.1563H21.1966V82.6028ZM34.1413 79.1798L31.7263 83.8313V86.4773H30.5293V83.8313L28.1038 79.1798H29.4373L31.1278 82.7603L32.8184 79.1798H34.1413ZM42.2943 81.3533C42.2943 81.7243 42.2068 82.0743 42.0318 82.4033C41.8568 82.7323 41.5768 83.0018 41.1918 83.2118C40.8068 83.4148 40.3133 83.5163 39.7113 83.5163H38.3882V86.4773H37.1913V79.1798H39.7113C40.2713 79.1798 40.7438 79.2778 41.1288 79.4738C41.5208 79.6628 41.8112 79.9218 42.0002 80.2508C42.1963 80.5798 42.2943 80.9473 42.2943 81.3533ZM39.7113 82.5398C40.1663 82.5398 40.5058 82.4383 40.7298 82.2353C40.9538 82.0253 41.0658 81.7313 41.0658 81.3533C41.0658 80.5553 40.6143 80.1563 39.7113 80.1563H38.3882V82.5398H39.7113ZM50.2504 79.1798V80.1563H48.3079V86.4773H47.1109V80.1563H45.1579V79.1798H50.2504ZM56.8911 86.5508C56.2121 86.5508 55.5856 86.3933 55.0117 86.0783C54.4446 85.7563 53.9932 85.3118 53.6572 84.7448C53.3282 84.1708 53.1636 83.5268 53.1636 82.8128C53.1636 82.0988 53.3282 81.4583 53.6572 80.8913C53.9932 80.3243 54.4446 79.8833 55.0117 79.5683C55.5856 79.2463 56.2121 79.0853 56.8911 79.0853C57.5771 79.0853 58.2036 79.2463 58.7706 79.5683C59.3447 79.8833 59.7961 80.3243 60.1252 80.8913C60.4542 81.4583 60.6187 82.0988 60.6187 82.8128C60.6187 83.5268 60.4542 84.1708 60.1252 84.7448C59.7961 85.3118 59.3447 85.7563 58.7706 86.0783C58.2036 86.3933 57.5771 86.5508 56.8911 86.5508ZM56.8911 85.5113C57.3741 85.5113 57.8047 85.4028 58.1826 85.1858C58.5607 84.9618 58.8546 84.6468 59.0646 84.2408C59.2816 83.8278 59.3901 83.3518 59.3901 82.8128C59.3901 82.2738 59.2816 81.8013 59.0646 81.3953C58.8546 80.9893 58.5607 80.6778 58.1826 80.4608C57.8047 80.2438 57.3741 80.1353 56.8911 80.1353C56.4081 80.1353 55.9776 80.2438 55.5996 80.4608C55.2216 80.6778 54.9241 80.9893 54.7072 81.3953C54.4972 81.8013 54.3922 82.2738 54.3922 82.8128C54.3922 83.3518 54.4972 83.8278 54.7072 84.2408C54.9241 84.6468 55.2216 84.9618 55.5996 85.1858C55.9776 85.4028 56.4081 85.5113 56.8911 85.5113Z" fill="#C9FA49"/>
</svg>
