<svg width="300" height="318" viewBox="0 0 300 318" fill="none" xmlns="http://www.w3.org/2000/svg">
<g filter="url(#filter0_b_13_194)">
<circle r="100.112" transform="matrix(0.999914 0.0130896 0.22937 0.973339 136.993 207.356)" stroke="url(#paint0_linear_13_194)" stroke-width="22.6575"/>
</g>
<g filter="url(#filter1_b_13_194)">
<rect width="177.561" height="236.748" rx="11.8374" transform="matrix(0.866025 0.5 -0.273456 0.961885 145.552 0.000488281)" fill="url(#paint1_radial_13_194)" fill-opacity="0.9"/>
<rect x="-0.350724" y="-0.865246" width="178.745" height="237.932" rx="12.4293" transform="matrix(0.866025 0.5 -0.273456 0.961885 145.268 0.142871)" stroke="url(#paint2_linear_13_194)" stroke-width="1.18374"/>
</g>
<path d="M142.315 11.3867C144.102 5.09828 150.142 2.65038 155.803 5.91919L289.073 82.8623C294.734 86.1311 297.875 93.8788 296.087 100.167L276.989 167.346L123.216 78.5654L142.315 11.3867Z" fill="url(#paint3_radial_13_194)"/>
<path fill-rule="evenodd" clip-rule="evenodd" d="M289.073 82.8619L253.193 62.1465L248.337 79.2258L246.719 84.9189L237.008 119.078L272.888 139.793L282.599 105.634L284.217 99.9413L289.073 82.8619ZM250.651 92.6498L249.966 95.0596L251.598 96.0015L248.411 107.21L250.833 108.608L254.705 94.99L250.651 92.6498ZM258.018 106.428C257.191 106.719 256.098 107.052 254.738 107.427L253.63 107.744L253.078 109.687L261.386 114.484L262.002 112.317L257.041 109.452C258.278 109.094 259.292 108.765 260.082 108.467C260.875 108.157 261.632 107.696 262.355 107.083C263.077 106.471 263.576 105.679 263.852 104.708C264.203 103.475 264.142 102.287 263.671 101.145C263.203 99.9906 262.33 99.0443 261.051 98.3063C259.885 97.6331 258.811 97.4624 257.829 97.7943C256.859 98.1327 256.138 99.0362 255.669 100.505L257.956 101.825C258.173 101.11 258.491 100.634 258.91 100.397C259.333 100.149 259.825 100.186 260.386 100.51C260.946 100.834 261.31 101.254 261.476 101.77C261.643 102.287 261.636 102.863 261.455 103.498C261.257 104.195 260.842 104.782 260.211 105.258C259.579 105.735 258.848 106.125 258.018 106.428ZM266.092 105.522C265.706 106.88 265.982 108.206 266.919 109.501C266.221 109.431 265.615 109.589 265.101 109.974C264.59 110.346 264.224 110.924 264 111.709C263.76 112.556 263.74 113.407 263.94 114.262C264.156 115.111 264.546 115.895 265.112 116.613C265.69 117.338 266.399 117.943 267.24 118.428C268.08 118.914 268.885 119.183 269.653 119.235C270.422 119.287 271.085 119.112 271.643 118.709C272.216 118.301 272.623 117.673 272.864 116.826C273.087 116.041 273.106 115.262 272.922 114.489C272.737 113.715 272.379 113.001 271.847 112.346C272.433 112.351 272.95 112.186 273.398 111.85C273.849 111.501 274.172 110.985 274.367 110.3C274.558 109.627 274.575 108.927 274.416 108.197C274.273 107.462 273.933 106.751 273.398 106.065C272.876 105.373 272.167 104.768 271.27 104.25C270.373 103.732 269.563 103.46 268.84 103.433C268.131 103.401 267.54 103.575 267.067 103.954C266.608 104.327 266.283 104.85 266.092 105.522ZM271.872 107.642C272.113 108.172 272.147 108.743 271.973 109.353C271.814 109.913 271.511 110.267 271.064 110.416C270.621 110.551 270.13 110.464 269.592 110.153C269.054 109.842 268.659 109.418 268.407 108.881C268.166 108.351 268.125 107.805 268.285 107.245C268.462 106.622 268.761 106.237 269.181 106.088C269.613 105.946 270.11 106.037 270.67 106.361C271.242 106.691 271.643 107.118 271.872 107.642ZM267.332 111.697C267.839 111.569 268.411 111.689 269.051 112.058C269.69 112.427 270.152 112.912 270.439 113.512C270.728 114.1 270.779 114.724 270.592 115.384C270.418 115.994 270.084 116.388 269.59 116.567C269.095 116.745 268.517 116.643 267.856 116.261C267.194 115.879 266.722 115.382 266.439 114.769C266.171 114.151 266.126 113.53 266.303 112.907C266.494 112.235 266.837 111.831 267.332 111.697ZM244.597 112.068C244.713 111.662 244.901 111.346 245.161 111.121C245.425 110.897 245.728 110.78 246.069 110.768C246.416 110.755 246.763 110.848 247.111 111.049C247.509 111.279 247.831 111.593 248.078 111.99C248.329 112.386 248.468 112.823 248.494 113.302L247.757 112.877C247.722 112.602 247.634 112.361 247.493 112.153C247.351 111.946 247.167 111.778 246.941 111.647C246.693 111.504 246.455 111.439 246.226 111.45C245.997 111.462 245.795 111.551 245.618 111.718C245.444 111.887 245.314 112.125 245.227 112.432C245.139 112.739 245.117 113.039 245.159 113.332C245.204 113.628 245.306 113.895 245.463 114.134C245.622 114.37 245.825 114.559 246.073 114.702C246.299 114.832 246.513 114.893 246.716 114.885C246.919 114.877 247.1 114.791 247.259 114.628L247.996 115.054C247.743 115.372 247.43 115.548 247.056 115.583C246.687 115.62 246.303 115.524 245.904 115.294C245.553 115.091 245.257 114.816 245.017 114.468C244.779 114.117 244.619 113.731 244.539 113.308C244.462 112.888 244.481 112.475 244.597 112.068ZM251.39 118.419L251.002 116.26L250.534 115.99L250.061 117.652L249.448 117.298L250.629 113.143L251.92 113.889C252.207 114.054 252.434 114.25 252.599 114.476C252.769 114.703 252.875 114.939 252.919 115.182C252.966 115.427 252.957 115.665 252.891 115.896C252.814 116.167 252.672 116.373 252.465 116.513C252.263 116.652 252.003 116.676 251.686 116.586L252.122 118.842L251.39 118.419ZM250.688 115.446L251.366 115.837C251.596 115.97 251.786 116.006 251.937 115.944C252.092 115.885 252.2 115.748 252.261 115.533C252.322 115.318 252.312 115.117 252.232 114.931C252.152 114.742 251.995 114.579 251.762 114.445L251.084 114.053L250.688 115.446ZM257.877 117.328L255.887 119.261L255.458 120.768L254.845 120.414L255.273 118.907L254.783 115.541L255.466 115.936L255.753 118.475L257.199 116.936L257.877 117.328ZM261.705 120.978C261.644 121.189 261.543 121.363 261.4 121.498C261.257 121.634 261.07 121.704 260.839 121.71C260.608 121.712 260.339 121.623 260.03 121.445L259.352 121.054L258.873 122.739L258.26 122.385L259.441 118.231L260.732 118.976C261.019 119.142 261.246 119.338 261.411 119.563C261.582 119.787 261.689 120.02 261.732 120.263C261.779 120.509 261.77 120.747 261.705 120.978ZM260.189 120.889C260.422 121.024 260.612 121.067 260.76 121.017C260.909 120.964 261.014 120.83 261.075 120.615C261.204 120.16 261.037 119.8 260.574 119.532L259.896 119.141L259.51 120.498L260.189 120.889ZM266.134 122.095L265.976 122.651L264.981 122.076L263.958 125.675L263.344 125.321L264.367 121.722L263.366 121.144L263.524 120.588L266.134 122.095ZM268.345 128.257C267.997 128.056 267.702 127.781 267.458 127.432C267.22 127.081 267.06 126.694 266.98 126.272C266.904 125.847 266.924 125.432 267.04 125.026C267.155 124.619 267.343 124.303 267.604 124.078C267.868 123.854 268.17 123.737 268.512 123.725C268.858 123.712 269.206 123.806 269.554 124.007C269.905 124.21 270.2 124.487 270.439 124.838C270.682 125.187 270.842 125.572 270.919 125.992C270.996 126.412 270.976 126.825 270.861 127.232C270.745 127.638 270.557 127.956 270.295 128.186C270.035 128.411 269.732 128.531 269.385 128.544C269.044 128.556 268.697 128.46 268.345 128.257ZM268.514 127.665C268.761 127.808 268.999 127.874 269.228 127.862C269.458 127.846 269.66 127.754 269.833 127.585C270.011 127.414 270.144 127.175 270.231 126.868C270.318 126.561 270.339 126.26 270.294 125.965C270.252 125.672 270.152 125.407 269.993 125.172C269.834 124.937 269.631 124.747 269.384 124.604C269.136 124.462 268.898 124.396 268.669 124.408C268.44 124.419 268.237 124.509 268.06 124.675C267.887 124.844 267.757 125.082 267.669 125.389C267.582 125.696 267.559 125.998 267.6 126.295C267.645 126.591 267.747 126.858 267.904 127.098C268.063 127.333 268.266 127.522 268.514 127.665Z" fill="#C9FA49"/>
<path d="M172.189 56.835C171.415 59.4352 173.084 62.0989 174.407 63.8735C175.767 65.6958 176.147 66.5799 175.914 67.373C175.555 68.5852 174.128 68.3875 172.929 67.7198C170.837 66.555 169.819 65.1822 169.002 64.1167L167.121 67.6654C167.942 68.7274 169.604 70.1994 171.452 71.2885C175.802 73.7998 179.34 73.0058 180.43 69.236C181.81 64.4502 176.025 60.8007 176.674 58.6803C176.873 58.0384 177.616 57.6603 178.864 58.1752C179.482 58.4282 181.137 59.3047 182.716 61.3451L184.539 57.9133C183.659 56.9252 182.489 55.7901 180.893 54.8686C176.799 52.5048 173.217 53.3124 172.189 56.835ZM191.67 61.477C190.876 61.0185 190.057 61.1577 189.529 61.7925L178.528 75.0444L182.874 77.5539L184.511 75.3402L189.822 78.4069L189.553 81.4097L193.384 83.6215L195.207 63.5191L191.67 61.477ZM190.882 66.7371L190.197 74.2851L186.761 72.3017L190.882 66.7371ZM168.532 48.1181L159.939 64.3123L164.081 66.7036L172.672 50.5085L168.532 48.1181ZM162.404 44.5804L154.577 54.4601L155.823 42.9363C155.952 41.6441 155.336 40.4997 154.439 39.9817L147.391 35.9126L147.143 36.3833C148.488 37.575 149.969 39.0988 150.79 40.2887C151.292 41.0162 151.373 41.4451 151.319 42.4533L150.5 58.8622L154.877 61.3895L166.754 47.0917L162.404 44.5804Z" fill="white"/>
<path d="M144.227 114.927C144.194 115.04 144.148 115.106 144.086 115.125C144.027 115.149 143.942 115.129 143.831 115.065C143.72 115.001 143.647 114.93 143.613 114.852C143.582 114.779 143.582 114.686 143.614 114.573L144.573 111.2C144.605 111.087 144.651 111.018 144.71 110.994C144.771 110.975 144.858 110.998 144.969 111.062C145.08 111.126 145.151 111.195 145.183 111.267C145.217 111.345 145.218 111.441 145.185 111.554L144.803 112.9L148.668 115.132L148.324 113.483C148.31 113.409 148.31 113.348 148.323 113.302C148.353 113.195 148.441 113.139 148.586 113.133C148.671 113.128 148.747 113.144 148.813 113.183C148.915 113.241 148.979 113.338 149.003 113.473L149.512 115.963C149.529 116.05 149.528 116.127 149.509 116.194C149.489 116.267 149.449 116.315 149.391 116.335C149.334 116.361 149.267 116.351 149.189 116.306L144.589 113.651L144.227 114.927ZM147.874 121.891C147.764 122.277 147.605 122.58 147.396 122.797C147.19 123.019 146.945 123.142 146.662 123.165C146.379 123.189 146.074 123.106 145.747 122.917C145.441 122.74 145.182 122.492 144.973 122.172C144.765 121.858 144.548 121.428 144.322 120.882L143.264 118.314L142.646 120.486L143.214 120.813C143.319 120.874 143.386 120.946 143.415 121.029C143.444 121.111 143.439 121.221 143.4 121.358C143.361 121.495 143.311 121.578 143.25 121.609C143.189 121.64 143.106 121.625 143.001 121.564L142.127 121.059C142.015 120.995 141.943 120.924 141.909 120.846C141.877 120.774 141.878 120.681 141.91 120.567L142.897 117.095C142.929 116.981 142.975 116.913 143.034 116.889C143.096 116.87 143.182 116.892 143.293 116.956C143.407 117.022 143.481 117.094 143.515 117.172L144.898 120.534C145.093 121.003 145.266 121.354 145.418 121.585C145.571 121.821 145.755 122.001 145.972 122.126C146.251 122.287 146.5 122.315 146.719 122.208C146.94 122.107 147.103 121.874 147.206 121.511C147.31 121.144 147.324 120.75 147.248 120.329L146.753 120.043C146.648 119.982 146.581 119.911 146.552 119.828C146.523 119.745 146.528 119.635 146.567 119.499C146.605 119.362 146.655 119.278 146.717 119.248C146.778 119.217 146.861 119.232 146.966 119.292L147.628 119.675C147.745 119.742 147.817 119.829 147.843 119.933C147.933 120.268 147.982 120.603 147.988 120.937C147.998 121.272 147.96 121.59 147.874 121.891ZM146.113 128.085C146.004 128.469 145.847 128.768 145.643 128.984C145.441 129.202 145.205 129.324 144.935 129.351C144.668 129.379 144.385 129.307 144.085 129.133C143.826 128.984 143.621 128.788 143.47 128.545C143.322 128.305 143.227 128.03 143.185 127.723C142.984 127.96 142.751 128.099 142.484 128.139C142.217 128.183 141.93 128.116 141.623 127.939C141.296 127.75 141.031 127.502 140.828 127.195C140.624 126.891 140.497 126.544 140.448 126.154C140.398 125.764 140.434 125.354 140.556 124.923C140.649 124.596 140.794 124.296 140.991 124.021C141.188 123.746 141.411 123.528 141.66 123.365C141.755 123.303 141.844 123.296 141.928 123.345C141.988 123.379 142.054 123.45 142.124 123.557C142.226 123.717 142.262 123.85 142.231 123.957C142.216 124.01 142.18 124.055 142.124 124.093C141.915 124.228 141.73 124.399 141.569 124.606C141.412 124.814 141.297 125.048 141.223 125.308C141.105 125.722 141.103 126.087 141.215 126.405C141.331 126.724 141.542 126.972 141.848 127.149C142.157 127.327 142.423 127.353 142.645 127.224C142.869 127.101 143.036 126.843 143.148 126.449L143.252 126.084C143.284 125.97 143.33 125.902 143.389 125.878C143.451 125.859 143.537 125.881 143.648 125.945C143.759 126.01 143.831 126.078 143.863 126.151C143.896 126.229 143.897 126.324 143.865 126.438L143.787 126.713C143.679 127.093 143.669 127.423 143.757 127.703C143.845 127.983 144.027 128.203 144.304 128.363C144.559 128.51 144.787 128.527 144.987 128.413C145.19 128.301 145.343 128.065 145.445 127.705C145.555 127.318 145.59 126.956 145.55 126.618L145.248 126.444C145.143 126.383 145.076 126.311 145.047 126.229C145.018 126.146 145.023 126.036 145.062 125.899C145.1 125.763 145.15 125.679 145.212 125.648C145.273 125.617 145.356 125.632 145.461 125.693L145.952 125.977C146.018 126.015 146.068 126.055 146.101 126.098C146.134 126.144 146.157 126.198 146.171 126.26C146.299 126.89 146.28 127.498 146.113 128.085ZM144.137 135.035C144.055 135.325 143.896 135.403 143.662 135.268L140.801 133.616L140.571 134.427C140.539 134.54 140.492 134.606 140.431 134.625C140.371 134.649 140.286 134.629 140.175 134.565C140.064 134.501 139.991 134.43 139.958 134.352C139.926 134.279 139.926 134.186 139.958 134.073L140.189 133.262L139.18 132.68L138.992 133.34C138.96 133.454 138.913 133.52 138.851 133.539C138.792 133.563 138.707 133.543 138.596 133.479C138.485 133.414 138.412 133.343 138.378 133.266C138.347 133.193 138.347 133.1 138.379 132.986L138.991 130.835C139.023 130.721 139.069 130.653 139.128 130.629C139.189 130.61 139.276 130.632 139.387 130.697C139.498 130.761 139.569 130.829 139.601 130.902C139.635 130.98 139.636 131.075 139.604 131.189L139.393 131.929L140.402 132.512L141.082 130.12C141.114 130.007 141.16 129.938 141.219 129.914C141.281 129.895 141.367 129.917 141.478 129.982C141.577 130.039 141.643 130.096 141.676 130.154L144.019 134.326C144.091 134.453 144.138 134.572 144.159 134.681C144.181 134.79 144.173 134.908 144.137 135.035ZM141.501 131.154L141.015 132.866L143.238 134.196L141.501 131.154ZM140.354 147.938C140.322 148.051 140.275 148.117 140.214 148.136C140.154 148.16 140.069 148.14 139.958 148.076C139.847 148.012 139.774 147.941 139.74 147.863C139.709 147.79 139.709 147.697 139.741 147.584L140.404 145.252L138.976 144.352C139.05 144.783 139.032 145.19 138.923 145.574C138.809 145.974 138.634 146.277 138.397 146.482C138.161 146.687 137.884 146.787 137.567 146.783C137.252 146.784 136.919 146.683 136.568 146.48C136.216 146.277 135.925 146.008 135.695 145.673C135.468 145.34 135.321 144.968 135.253 144.556C135.185 144.143 135.21 143.727 135.33 143.307C135.421 142.987 135.56 142.693 135.748 142.424C135.937 142.156 136.151 141.938 136.391 141.77C136.483 141.703 136.575 141.696 136.665 141.748C136.731 141.786 136.795 141.854 136.858 141.953C136.963 142.114 137 142.248 136.969 142.355C136.954 142.408 136.918 142.453 136.862 142.491C136.663 142.628 136.486 142.8 136.333 143.007C136.18 143.213 136.068 143.442 135.997 143.692C135.92 143.962 135.901 144.225 135.94 144.481C135.982 144.738 136.076 144.969 136.221 145.173C136.367 145.382 136.558 145.554 136.792 145.689C137.015 145.817 137.225 145.881 137.425 145.88C137.624 145.882 137.798 145.817 137.947 145.686C138.095 145.558 138.204 145.371 138.275 145.124C138.339 144.897 138.37 144.678 138.367 144.466C138.367 144.257 138.337 144.036 138.278 143.803C138.263 143.732 138.272 143.64 138.304 143.527C138.344 143.387 138.395 143.3 138.457 143.266C138.518 143.235 138.6 143.253 138.703 143.321L140.927 144.721C141.031 144.789 141.097 144.862 141.127 144.941C141.157 145.021 141.152 145.129 141.114 145.266L140.354 147.938ZM138.661 154.3C138.638 154.391 138.591 154.446 138.52 154.463C138.448 154.483 138.335 154.449 138.182 154.361C138.089 154.307 138.026 154.251 137.993 154.194C137.963 154.141 137.954 154.084 137.969 154.022C138.179 153.111 138.165 152.309 137.929 151.617C137.695 150.927 137.273 150.351 136.663 149.89C136.818 150.181 136.915 150.486 136.954 150.803C136.993 151.121 136.971 151.423 136.89 151.71C136.786 152.077 136.621 152.367 136.396 152.579C136.171 152.794 135.905 152.911 135.6 152.928C135.293 152.949 134.971 152.863 134.635 152.669C134.311 152.481 134.044 152.228 133.834 151.909C133.627 151.591 133.496 151.234 133.441 150.837C133.385 150.444 133.414 150.045 133.529 149.642C133.632 149.278 133.803 148.986 134.04 148.766C134.277 148.549 134.564 148.43 134.902 148.408C135.372 148.38 135.917 148.545 136.539 148.904C137.059 149.204 137.515 149.609 137.908 150.12C138.301 150.634 138.574 151.246 138.729 151.957C138.886 152.672 138.863 153.453 138.661 154.3ZM136.254 151.215C136.324 150.972 136.344 150.729 136.315 150.487C136.289 150.247 136.218 150.029 136.102 149.834C135.988 149.644 135.836 149.494 135.647 149.385C135.437 149.264 135.235 149.207 135.04 149.215C134.844 149.226 134.673 149.3 134.526 149.437C134.378 149.576 134.268 149.773 134.196 150.027C134.124 150.28 134.103 150.526 134.133 150.765C134.163 151.004 134.239 151.219 134.363 151.411C134.49 151.604 134.656 151.76 134.86 151.878C135.067 151.998 135.263 152.051 135.449 152.038C135.634 152.028 135.795 151.952 135.933 151.81C136.073 151.674 136.18 151.475 136.254 151.215ZM136.745 160.632C136.713 160.745 136.666 160.812 136.605 160.831C136.545 160.855 136.46 160.835 136.349 160.77C136.277 160.729 136.22 160.684 136.177 160.636L132.031 155.761C131.97 155.691 131.933 155.613 131.919 155.527C131.901 155.443 131.904 155.356 131.93 155.266C131.964 155.146 132.015 155.06 132.081 155.01C132.144 154.96 132.212 154.957 132.284 154.998C132.326 155.023 132.361 155.053 132.389 155.088L136.293 159.713L136.967 157.341L136.31 156.961C136.204 156.901 136.137 156.829 136.108 156.746C136.08 156.664 136.085 156.554 136.123 156.417C136.162 156.28 136.212 156.197 136.273 156.166C136.335 156.135 136.418 156.15 136.523 156.211L137.487 156.767C137.598 156.832 137.67 156.9 137.701 156.973C137.735 157.051 137.736 157.146 137.704 157.26L136.745 160.632ZM135.598 165.073C135.499 165.419 135.344 165.695 135.132 165.899C134.923 166.108 134.681 166.226 134.407 166.255C134.133 166.283 133.86 166.218 133.586 166.061C133.343 165.92 133.147 165.718 132.999 165.453C132.85 165.189 132.751 164.899 132.701 164.582C132.486 164.82 132.24 164.967 131.962 165.024C131.683 165.08 131.397 165.024 131.103 164.854C130.793 164.675 130.539 164.426 130.34 164.105C130.144 163.786 130.02 163.43 129.967 163.039C129.914 162.647 129.942 162.258 130.052 161.871C130.162 161.484 130.332 161.176 130.561 160.947C130.791 160.718 131.054 160.587 131.35 160.552C131.65 160.519 131.954 160.592 132.263 160.771C132.558 160.941 132.791 161.184 132.963 161.501C133.135 161.818 133.241 162.166 133.28 162.546C133.47 162.368 133.683 162.258 133.919 162.216C134.154 162.177 134.393 162.227 134.636 162.368C134.91 162.526 135.138 162.75 135.32 163.042C135.503 163.334 135.619 163.658 135.669 164.012C135.72 164.372 135.697 164.726 135.598 165.073ZM134.931 164.688C134.99 164.481 135.008 164.276 134.985 164.072C134.965 163.874 134.905 163.692 134.805 163.526C134.706 163.359 134.572 163.228 134.404 163.131C134.25 163.042 134.098 163.008 133.945 163.029C133.792 163.049 133.656 163.121 133.538 163.242C133.418 163.368 133.33 163.53 133.273 163.73C133.216 163.931 133.201 164.133 133.226 164.338C133.251 164.547 133.313 164.734 133.413 164.9C133.512 165.066 133.639 165.194 133.792 165.282C133.96 165.379 134.121 165.418 134.273 165.397C134.426 165.376 134.559 165.303 134.671 165.178C134.786 165.058 134.872 164.894 134.931 164.688ZM132.647 163.369C132.716 163.125 132.737 162.887 132.709 162.653C132.681 162.42 132.609 162.207 132.492 162.015C132.377 161.829 132.227 161.681 132.04 161.574C131.854 161.466 131.673 161.422 131.496 161.44C131.319 161.462 131.161 161.542 131.024 161.68C130.89 161.82 130.788 162.012 130.719 162.256C130.65 162.499 130.629 162.738 130.657 162.971C130.688 163.207 130.762 163.419 130.88 163.607C130.997 163.799 131.149 163.948 131.335 164.056C131.521 164.163 131.701 164.205 131.876 164.182C132.052 164.163 132.208 164.084 132.342 163.944C132.476 163.804 132.578 163.612 132.647 163.369ZM132.104 177.362C132.006 177.709 131.85 177.984 131.639 178.188C131.429 178.397 131.187 178.516 130.913 178.544C130.64 178.572 130.366 178.507 130.093 178.35C129.849 178.209 129.653 178.007 129.505 177.742C129.356 177.478 129.257 177.188 129.207 176.871C128.993 177.109 128.746 177.256 128.468 177.313C128.19 177.369 127.903 177.313 127.609 177.143C127.3 176.964 127.045 176.715 126.846 176.394C126.65 176.075 126.526 175.72 126.473 175.328C126.42 174.936 126.449 174.547 126.559 174.16C126.669 173.773 126.838 173.465 127.068 173.236C127.297 173.008 127.56 172.876 127.856 172.841C128.156 172.808 128.46 172.881 128.77 173.06C129.064 173.23 129.297 173.473 129.469 173.79C129.642 174.107 129.747 174.455 129.786 174.835C129.976 174.657 130.189 174.547 130.425 174.505C130.66 174.466 130.899 174.516 131.143 174.657C131.416 174.815 131.644 175.04 131.827 175.331C132.009 175.623 132.125 175.947 132.175 176.301C132.226 176.661 132.203 177.015 132.104 177.362ZM131.438 176.977C131.496 176.77 131.514 176.565 131.492 176.361C131.471 176.163 131.411 175.981 131.312 175.815C131.212 175.648 131.078 175.517 130.91 175.42C130.757 175.331 130.604 175.297 130.451 175.318C130.298 175.338 130.163 175.41 130.044 175.532C129.925 175.657 129.837 175.819 129.78 176.02C129.723 176.22 129.707 176.422 129.733 176.627C129.757 176.836 129.82 177.023 129.919 177.189C130.019 177.356 130.145 177.483 130.298 177.571C130.466 177.668 130.627 177.707 130.78 177.686C130.932 177.666 131.065 177.593 131.177 177.467C131.292 177.347 131.379 177.183 131.438 176.977ZM129.153 175.658C129.223 175.414 129.243 175.176 129.215 174.942C129.187 174.709 129.115 174.496 128.998 174.304C128.883 174.118 128.733 173.971 128.547 173.863C128.36 173.756 128.179 173.711 128.003 173.729C127.825 173.751 127.668 173.831 127.53 173.969C127.396 174.109 127.295 174.301 127.225 174.545C127.156 174.788 127.135 175.027 127.163 175.26C127.194 175.496 127.269 175.708 127.387 175.896C127.503 176.088 127.655 176.237 127.841 176.345C128.027 176.452 128.208 176.494 128.382 176.471C128.559 176.452 128.714 176.373 128.848 176.233C128.983 176.093 129.084 175.901 129.153 175.658ZM129.758 185.21C129.725 185.324 129.679 185.39 129.617 185.409C129.558 185.433 129.473 185.413 129.362 185.349C129.29 185.307 129.232 185.262 129.19 185.215L125.043 180.339C124.983 180.269 124.945 180.191 124.931 180.105C124.913 180.021 124.917 179.934 124.943 179.844C124.977 179.724 125.027 179.639 125.094 179.588C125.157 179.539 125.224 179.535 125.297 179.577C125.339 179.601 125.374 179.631 125.402 179.667L129.306 184.291L129.98 181.919L129.322 181.54C129.217 181.479 129.15 181.407 129.121 181.324C129.092 181.242 129.097 181.132 129.136 180.995C129.175 180.858 129.225 180.775 129.286 180.744C129.347 180.713 129.43 180.728 129.536 180.789L130.5 181.346C130.611 181.41 130.682 181.478 130.714 181.551C130.748 181.629 130.749 181.724 130.716 181.838L129.758 185.21ZM128.18 191.167C128.157 191.259 128.11 191.313 128.039 191.33C127.966 191.351 127.854 191.317 127.701 191.228C127.608 191.174 127.545 191.119 127.512 191.061C127.482 191.009 127.473 190.951 127.487 190.89C127.698 189.978 127.684 189.176 127.448 188.484C127.214 187.794 126.792 187.218 126.182 186.757C126.337 187.049 126.434 187.353 126.473 187.671C126.512 187.988 126.49 188.291 126.409 188.578C126.304 188.945 126.14 189.234 125.915 189.446C125.69 189.661 125.424 189.778 125.119 189.796C124.812 189.817 124.49 189.73 124.154 189.536C123.83 189.349 123.562 189.095 123.353 188.776C123.146 188.459 123.015 188.101 122.96 187.705C122.904 187.311 122.933 186.913 123.048 186.509C123.151 186.145 123.322 185.853 123.559 185.633C123.795 185.416 124.083 185.297 124.421 185.275C124.891 185.247 125.436 185.412 126.058 185.771C126.578 186.071 127.034 186.477 127.427 186.987C127.82 187.501 128.093 188.113 128.248 188.824C128.404 189.539 128.382 190.32 128.18 191.167ZM125.773 188.083C125.843 187.839 125.863 187.596 125.834 187.354C125.807 187.114 125.736 186.896 125.621 186.701C125.507 186.511 125.355 186.362 125.166 186.252C124.956 186.131 124.753 186.074 124.559 186.082C124.363 186.094 124.192 186.168 124.045 186.304C123.897 186.444 123.787 186.64 123.715 186.894C123.642 187.147 123.621 187.394 123.651 187.632C123.682 187.871 123.758 188.086 123.882 188.278C124.009 188.472 124.174 188.627 124.379 188.745C124.586 188.865 124.782 188.918 124.968 188.905C125.153 188.895 125.314 188.819 125.452 188.678C125.592 188.541 125.699 188.343 125.773 188.083ZM126.379 197.094C126.347 197.207 126.3 197.274 126.239 197.293C126.179 197.317 126.094 197.297 125.983 197.232C125.872 197.168 125.8 197.097 125.766 197.02C125.734 196.947 125.734 196.854 125.766 196.74L126.429 194.409L125.002 193.509C125.075 193.939 125.057 194.346 124.948 194.73C124.834 195.13 124.659 195.433 124.423 195.638C124.186 195.843 123.909 195.944 123.592 195.939C123.277 195.94 122.944 195.839 122.593 195.636C122.241 195.433 121.951 195.164 121.721 194.83C121.494 194.497 121.346 194.124 121.278 193.712C121.21 193.3 121.236 192.884 121.355 192.463C121.446 192.143 121.586 191.849 121.774 191.581C121.962 191.313 122.176 191.095 122.416 190.927C122.508 190.86 122.6 190.852 122.69 190.904C122.756 190.942 122.82 191.01 122.883 191.109C122.988 191.27 123.025 191.404 122.995 191.511C122.979 191.564 122.944 191.61 122.888 191.647C122.688 191.784 122.511 191.956 122.358 192.163C122.205 192.37 122.093 192.598 122.022 192.848C121.945 193.119 121.926 193.381 121.965 193.637C122.008 193.894 122.101 194.125 122.246 194.329C122.393 194.538 122.583 194.71 122.818 194.846C123.04 194.974 123.251 195.037 123.45 195.036C123.649 195.038 123.823 194.974 123.972 194.842C124.12 194.714 124.23 194.527 124.3 194.28C124.364 194.053 124.395 193.834 124.392 193.623C124.392 193.413 124.363 193.192 124.303 192.96C124.288 192.889 124.297 192.797 124.329 192.683C124.369 192.543 124.42 192.456 124.482 192.422C124.543 192.391 124.625 192.41 124.729 192.477L126.953 193.878C127.056 193.945 127.122 194.018 127.152 194.098C127.182 194.177 127.178 194.285 127.139 194.422L126.379 197.094ZM123.175 208.77C123.093 209.06 122.934 209.138 122.7 209.002L119.839 207.351L119.609 208.161C119.577 208.275 119.53 208.341 119.468 208.36C119.409 208.384 119.324 208.364 119.213 208.3C119.102 208.236 119.029 208.165 118.995 208.087C118.964 208.014 118.964 207.921 118.996 207.808L119.227 206.997L118.217 206.414L118.03 207.075C117.997 207.188 117.951 207.254 117.889 207.273C117.83 207.297 117.745 207.277 117.634 207.213C117.523 207.149 117.45 207.078 117.416 207C117.385 206.928 117.385 206.835 117.417 206.721L118.029 204.57C118.061 204.456 118.107 204.387 118.166 204.363C118.227 204.344 118.314 204.367 118.425 204.431C118.536 204.495 118.607 204.564 118.639 204.636C118.673 204.714 118.674 204.81 118.641 204.923L118.431 205.664L119.44 206.246L120.12 203.855C120.152 203.741 120.198 203.673 120.257 203.648C120.319 203.63 120.405 203.652 120.516 203.716C120.615 203.774 120.681 203.831 120.713 203.889L123.057 208.061C123.129 208.188 123.176 208.306 123.197 208.416C123.219 208.525 123.211 208.643 123.175 208.77ZM120.539 204.889L120.053 206.6L122.276 207.93L120.539 204.889ZM121.657 214.109C121.548 214.492 121.391 214.792 121.187 215.008C120.985 215.225 120.749 215.348 120.479 215.374C120.213 215.403 119.929 215.33 119.629 215.157C119.37 215.008 119.166 214.812 119.014 214.569C118.866 214.328 118.771 214.054 118.729 213.746C118.529 213.984 118.295 214.123 118.028 214.163C117.761 214.207 117.474 214.14 117.168 213.963C116.84 213.774 116.575 213.526 116.372 213.219C116.168 212.915 116.042 212.568 115.992 212.178C115.942 211.788 115.978 211.377 116.1 210.947C116.193 210.62 116.338 210.319 116.535 210.045C116.732 209.77 116.955 209.551 117.204 209.388C117.299 209.326 117.388 209.32 117.472 209.368C117.532 209.403 117.598 209.474 117.669 209.581C117.77 209.74 117.806 209.874 117.775 209.98C117.76 210.034 117.725 210.079 117.668 210.117C117.459 210.252 117.274 210.423 117.114 210.629C116.957 210.838 116.841 211.072 116.767 211.332C116.649 211.746 116.647 212.111 116.759 212.429C116.875 212.748 117.086 212.996 117.392 213.173C117.702 213.351 117.967 213.376 118.189 213.248C118.413 213.125 118.581 212.866 118.693 212.473L118.796 212.108C118.829 211.994 118.874 211.925 118.934 211.901C118.995 211.882 119.081 211.905 119.192 211.969C119.303 212.033 119.375 212.102 119.407 212.175C119.441 212.252 119.441 212.348 119.409 212.461L119.331 212.737C119.223 213.117 119.213 213.447 119.301 213.727C119.389 214.007 119.571 214.227 119.848 214.386C120.103 214.534 120.331 214.551 120.531 214.437C120.734 214.325 120.887 214.089 120.989 213.729C121.099 213.342 121.134 212.98 121.094 212.642L120.792 212.467C120.687 212.407 120.62 212.335 120.591 212.252C120.562 212.17 120.567 212.06 120.606 211.923C120.645 211.786 120.695 211.703 120.756 211.672C120.817 211.641 120.9 211.656 121.005 211.717L121.496 212C121.562 212.039 121.612 212.079 121.645 212.121C121.678 212.167 121.701 212.221 121.715 212.284C121.843 212.913 121.824 213.522 121.657 214.109ZM119.925 220.203C119.815 220.59 119.655 220.892 119.447 221.11C119.24 221.332 118.995 221.455 118.713 221.478C118.43 221.501 118.125 221.418 117.797 221.229C117.491 221.053 117.233 220.805 117.023 220.485C116.815 220.171 116.598 219.741 116.372 219.195L115.314 216.627L114.697 218.799L115.264 219.126C115.37 219.187 115.437 219.259 115.465 219.341C115.494 219.424 115.489 219.534 115.451 219.671C115.412 219.807 115.362 219.891 115.3 219.922C115.239 219.952 115.156 219.937 115.051 219.877L114.177 219.372C114.066 219.308 113.993 219.237 113.96 219.159C113.928 219.087 113.928 218.994 113.96 218.88L114.948 215.408C114.98 215.294 115.026 215.225 115.085 215.201C115.146 215.182 115.232 215.205 115.344 215.269C115.458 215.335 115.532 215.407 115.565 215.485L116.949 218.846C117.144 219.316 117.317 219.667 117.468 219.898C117.621 220.134 117.806 220.314 118.022 220.439C118.302 220.6 118.551 220.627 118.77 220.521C118.991 220.42 119.153 220.187 119.257 219.823C119.361 219.456 119.375 219.063 119.299 218.642L118.803 218.356C118.698 218.295 118.631 218.223 118.602 218.141C118.573 218.058 118.578 217.948 118.617 217.812C118.656 217.675 118.706 217.591 118.767 217.56C118.828 217.53 118.911 217.545 119.017 217.605L119.679 217.988C119.796 218.055 119.868 218.141 119.894 218.246C119.984 218.581 120.032 218.916 120.039 219.25C120.048 219.585 120.01 219.903 119.925 220.203ZM112.783 225.529C112.751 225.642 112.704 225.708 112.643 225.727C112.584 225.751 112.499 225.731 112.388 225.667C112.276 225.603 112.204 225.532 112.17 225.454C112.138 225.381 112.139 225.288 112.171 225.175L113.13 221.802C113.162 221.689 113.208 221.62 113.267 221.596C113.328 221.577 113.414 221.6 113.526 221.664C113.637 221.728 113.708 221.797 113.74 221.869C113.774 221.947 113.775 222.043 113.742 222.156L113.36 223.502L117.225 225.734L116.881 224.085C116.867 224.011 116.867 223.95 116.88 223.903C116.91 223.797 116.998 223.741 117.143 223.735C117.228 223.73 117.304 223.746 117.37 223.784C117.472 223.843 117.536 223.94 117.56 224.075L118.069 226.565C118.086 226.652 118.085 226.729 118.066 226.796C118.045 226.869 118.006 226.916 117.947 226.937C117.891 226.963 117.824 226.953 117.746 226.908L113.146 224.253L112.783 225.529Z" fill="white"/>
<path d="M135.259 109.391C135.232 109.485 135.193 109.54 135.142 109.556C135.092 109.576 135.021 109.559 134.929 109.506C134.836 109.452 134.776 109.393 134.747 109.329C134.721 109.268 134.721 109.19 134.748 109.096L134.986 108.258L132.291 106.701C131.853 106.449 131.561 106.115 131.417 105.702C131.272 105.288 131.277 104.809 131.432 104.264C131.522 103.947 131.654 103.688 131.828 103.488C132.003 103.291 132.204 103.155 132.429 103.078C132.49 103.061 132.56 103.075 132.64 103.122L133.71 103.739C133.797 103.79 133.853 103.85 133.877 103.919C133.901 103.988 133.897 104.079 133.865 104.193C133.833 104.307 133.791 104.377 133.74 104.402C133.689 104.428 133.62 104.415 133.532 104.365L132.541 103.793C132.287 103.918 132.102 104.183 131.987 104.589C131.883 104.953 131.881 105.259 131.979 105.507C132.078 105.755 132.278 105.966 132.581 106.141L135.164 107.632L135.568 106.21C135.595 106.116 135.633 106.059 135.683 106.039C135.734 106.023 135.806 106.042 135.898 106.095C135.991 106.149 136.05 106.206 136.077 106.266C136.105 106.331 136.106 106.411 136.079 106.505L135.259 109.391ZM134.456 112.553C134.332 112.987 134.127 113.313 133.841 113.533C133.553 113.755 133.208 113.856 132.807 113.834C132.407 113.817 131.978 113.676 131.52 113.411C131.062 113.147 130.683 112.822 130.385 112.436C130.089 112.054 129.891 111.641 129.794 111.196C129.697 110.756 129.711 110.319 129.834 109.885C129.958 109.451 130.162 109.123 130.447 108.899C130.734 108.679 131.077 108.578 131.477 108.596C131.879 108.617 132.309 108.76 132.767 109.025C133.225 109.289 133.602 109.612 133.898 109.994C134.197 110.379 134.395 110.793 134.494 111.235C134.592 111.68 134.579 112.119 134.456 112.553ZM133.9 112.232C133.987 111.927 133.992 111.616 133.916 111.3C133.839 110.987 133.686 110.69 133.457 110.409C133.227 110.13 132.935 109.889 132.579 109.683C132.224 109.478 131.896 109.362 131.595 109.334C131.296 109.31 131.042 109.372 130.834 109.52C130.625 109.672 130.477 109.9 130.39 110.206C130.303 110.512 130.298 110.821 130.375 111.134C130.451 111.45 130.603 111.746 130.83 112.023C131.059 112.304 131.351 112.547 131.707 112.752C132.062 112.958 132.391 113.073 132.692 113.098C132.993 113.126 133.248 113.065 133.457 112.914C133.666 112.765 133.813 112.538 133.9 112.232ZM132.359 119.59C132.332 119.684 132.293 119.74 132.242 119.755C132.193 119.775 132.122 119.759 132.029 119.705C131.936 119.652 131.876 119.593 131.848 119.528C131.821 119.467 131.822 119.39 131.848 119.295L131.934 118.995L128.499 117.012L128.413 117.312C128.387 117.406 128.348 117.462 128.296 117.477C128.247 117.497 128.176 117.481 128.083 117.427C127.991 117.374 127.93 117.315 127.902 117.25C127.876 117.189 127.876 117.112 127.903 117.017L128.275 115.708C128.302 115.613 128.34 115.556 128.389 115.536C128.441 115.52 128.512 115.539 128.605 115.592C128.698 115.646 128.757 115.703 128.784 115.764C128.812 115.828 128.812 115.908 128.786 116.003L128.677 116.386L130.208 117.27L130.799 115.194L129.267 114.31L129.158 114.693C129.131 114.788 129.092 114.843 129.041 114.859C128.991 114.879 128.92 114.862 128.828 114.809C128.735 114.755 128.675 114.696 128.647 114.631C128.62 114.571 128.62 114.493 128.647 114.398L129.019 113.089C129.046 112.995 129.084 112.937 129.134 112.917C129.185 112.902 129.257 112.92 129.349 112.974C129.442 113.027 129.502 113.084 129.528 113.145C129.556 113.21 129.557 113.289 129.53 113.384L129.445 113.684L132.88 115.667L132.965 115.367C132.992 115.273 133.03 115.215 133.08 115.195C133.131 115.18 133.203 115.198 133.295 115.252C133.388 115.305 133.447 115.362 133.474 115.423C133.502 115.488 133.503 115.567 133.476 115.662L133.104 116.971C133.077 117.066 133.038 117.121 132.987 117.137C132.937 117.157 132.866 117.14 132.774 117.087C132.681 117.033 132.621 116.974 132.592 116.909C132.566 116.849 132.566 116.771 132.593 116.676L132.702 116.293L131.309 115.489L130.719 117.565L132.112 118.369L132.221 117.986C132.248 117.891 132.286 117.834 132.335 117.814C132.386 117.798 132.458 117.817 132.551 117.87C132.643 117.924 132.703 117.981 132.729 118.042C132.758 118.106 132.758 118.186 132.731 118.281L132.359 119.59ZM130.892 124.752C130.865 124.847 130.826 124.902 130.775 124.918C130.725 124.938 130.654 124.921 130.562 124.867C130.469 124.814 130.409 124.755 130.38 124.69C130.354 124.629 130.354 124.552 130.381 124.457L130.449 124.22L126.642 122.022C126.574 121.983 126.528 121.925 126.503 121.849C126.477 121.776 126.479 121.687 126.509 121.581C126.551 121.434 126.653 121.357 126.815 121.35L130.911 121.195L130.915 121.179L127.822 119.393L127.655 119.98C127.628 120.075 127.589 120.13 127.538 120.146C127.488 120.166 127.417 120.149 127.325 120.096C127.232 120.042 127.172 119.983 127.144 119.918C127.117 119.858 127.117 119.78 127.144 119.686L127.564 118.21C127.591 118.115 127.629 118.058 127.678 118.038C127.729 118.022 127.801 118.041 127.894 118.094C127.986 118.148 128.046 118.205 128.072 118.265C128.101 118.33 128.101 118.41 128.074 118.504L127.995 118.784L131.43 120.767L131.521 120.446C131.548 120.351 131.586 120.294 131.636 120.274C131.687 120.258 131.759 120.277 131.851 120.331C131.944 120.384 132.003 120.441 132.03 120.502C132.058 120.567 132.059 120.646 132.032 120.741L131.766 121.675C131.749 121.736 131.726 121.779 131.699 121.806C131.67 121.834 131.635 121.85 131.594 121.852L127.848 121.99L127.843 122.007L130.622 123.611L130.765 123.106C130.792 123.012 130.83 122.954 130.879 122.934C130.931 122.919 131.002 122.937 131.095 122.991C131.188 123.044 131.247 123.101 131.274 123.162C131.302 123.227 131.302 123.307 131.276 123.401L130.892 124.752ZM128.55 132.987C128.426 133.424 128.227 133.755 127.953 133.982C127.681 134.21 127.351 134.317 126.961 134.303C126.574 134.293 126.152 134.156 125.697 133.893C125.241 133.63 124.872 133.31 124.589 132.933C124.305 132.559 124.12 132.154 124.033 131.719C123.95 131.286 123.97 130.851 124.094 130.414L124.652 128.451C124.679 128.356 124.717 128.299 124.767 128.279C124.818 128.263 124.89 128.282 124.982 128.335C125.075 128.389 125.134 128.446 125.161 128.506C125.189 128.571 125.19 128.651 125.163 128.745L125.03 129.212L128.465 131.196L128.598 130.729C128.625 130.634 128.663 130.577 128.712 130.557C128.764 130.541 128.835 130.56 128.928 130.613C129.021 130.667 129.08 130.724 129.107 130.784C129.135 130.849 129.135 130.929 129.109 131.023L128.55 132.987ZM124.852 129.838L124.632 130.613C124.538 130.944 124.521 131.269 124.582 131.589C124.645 131.91 124.785 132.211 125.002 132.492C125.222 132.775 125.516 133.022 125.884 133.234C126.252 133.447 126.583 133.56 126.876 133.574C127.171 133.589 127.42 133.513 127.623 133.345C127.825 133.177 127.973 132.927 128.067 132.597L128.287 131.821L124.852 129.838ZM127.177 138.155C127.054 138.589 126.849 138.916 126.562 139.135C126.275 139.358 125.93 139.458 125.528 139.436C125.128 139.419 124.699 139.278 124.241 139.014C123.783 138.749 123.405 138.424 123.107 138.038C122.81 137.657 122.613 137.244 122.515 136.799C122.419 136.358 122.432 135.921 122.556 135.487C122.679 135.054 122.883 134.725 123.168 134.501C123.455 134.282 123.798 134.181 124.198 134.198C124.6 134.22 125.03 134.363 125.488 134.627C125.946 134.891 126.323 135.214 126.62 135.596C126.918 135.982 127.117 136.396 127.215 136.838C127.313 137.283 127.3 137.722 127.177 138.155ZM126.622 137.835C126.708 137.529 126.714 137.218 126.638 136.902C126.56 136.589 126.407 136.292 126.179 136.011C125.949 135.733 125.656 135.491 125.301 135.286C124.945 135.081 124.617 134.964 124.316 134.936C124.017 134.912 123.764 134.974 123.555 135.123C123.346 135.274 123.198 135.502 123.111 135.808C123.024 136.114 123.02 136.423 123.097 136.736C123.173 137.052 123.325 137.349 123.552 137.625C123.781 137.906 124.073 138.15 124.428 138.355C124.784 138.56 125.112 138.675 125.414 138.7C125.715 138.729 125.97 138.667 126.179 138.516C126.387 138.368 126.535 138.14 126.622 137.835ZM122.31 143.301C122.277 143.415 122.236 143.485 122.185 143.511C122.134 143.536 122.064 143.524 121.977 143.473L120.862 142.829C120.769 142.776 120.709 142.717 120.681 142.652C120.654 142.591 120.654 142.514 120.681 142.419L121.741 138.691C121.768 138.597 121.806 138.54 121.855 138.52C121.906 138.504 121.978 138.523 122.071 138.576C122.164 138.63 122.223 138.687 122.25 138.747C122.278 138.812 122.278 138.892 122.252 138.986L122.131 139.412L125.566 141.395L125.687 140.969C125.714 140.875 125.752 140.818 125.801 140.798C125.852 140.782 125.924 140.801 126.017 140.854C126.109 140.908 126.169 140.965 126.195 141.025C126.223 141.09 126.224 141.17 126.197 141.264L125.161 144.909C125.134 145.003 125.095 145.058 125.044 145.074C124.995 145.094 124.924 145.077 124.831 145.024L123.878 144.473C123.79 144.423 123.734 144.363 123.71 144.294C123.686 144.225 123.69 144.134 123.723 144.02C123.755 143.906 123.797 143.836 123.848 143.81C123.899 143.785 123.968 143.797 124.055 143.848L124.754 144.251L125.388 142.02L123.995 141.216L123.689 142.292L124.031 142.489C124.119 142.54 124.175 142.597 124.201 142.66C124.226 142.726 124.222 142.815 124.191 142.926C124.159 143.037 124.119 143.103 124.069 143.123C124.019 143.146 123.95 143.132 123.863 143.081L122.669 142.392C122.581 142.341 122.525 142.283 122.5 142.217C122.474 142.154 122.477 142.066 122.509 141.955C122.54 141.844 122.581 141.777 122.632 141.754C122.681 141.734 122.749 141.749 122.837 141.8L123.179 141.997L123.485 140.921L121.953 140.037L121.295 142.351L122.155 142.848C122.242 142.898 122.298 142.958 122.322 143.027C122.346 143.096 122.342 143.187 122.31 143.301Z" fill="white"/>
<path d="M105.398 198.267C105.372 198.361 105.333 198.416 105.281 198.432C105.232 198.452 105.161 198.436 105.068 198.382C104.976 198.329 104.915 198.269 104.887 198.205C104.861 198.144 104.861 198.067 104.888 197.972L105.687 195.162C105.714 195.067 105.752 195.01 105.801 194.99C105.852 194.974 105.924 194.993 106.017 195.046C106.109 195.1 106.169 195.157 106.195 195.217C106.224 195.282 106.224 195.362 106.197 195.456L105.879 196.578L109.1 198.438L108.813 197.063C108.801 197.002 108.801 196.951 108.812 196.913C108.837 196.824 108.91 196.777 109.031 196.772C109.102 196.768 109.165 196.782 109.221 196.813C109.306 196.863 109.358 196.943 109.379 197.055L109.803 199.13C109.817 199.203 109.817 199.267 109.801 199.323C109.783 199.384 109.75 199.423 109.702 199.441C109.655 199.462 109.599 199.454 109.534 199.416L105.701 197.203L105.398 198.267ZM108.438 204.07C108.346 204.393 108.214 204.644 108.04 204.825C107.868 205.011 107.664 205.113 107.428 205.132C107.192 205.152 106.938 205.083 106.665 204.925C106.41 204.778 106.195 204.571 106.02 204.305C105.847 204.043 105.666 203.685 105.478 203.23L104.596 201.09L104.081 202.899L104.554 203.172C104.642 203.223 104.698 203.283 104.722 203.352C104.746 203.421 104.742 203.512 104.71 203.626C104.677 203.74 104.636 203.81 104.585 203.835C104.534 203.861 104.464 203.849 104.377 203.798L103.648 203.377C103.556 203.324 103.495 203.265 103.467 203.2C103.441 203.139 103.441 203.062 103.468 202.967L104.29 200.074C104.317 199.979 104.355 199.922 104.405 199.902C104.456 199.886 104.528 199.905 104.62 199.958C104.716 200.013 104.777 200.073 104.805 200.138L105.958 202.939C106.121 203.331 106.265 203.623 106.391 203.815C106.519 204.012 106.672 204.162 106.853 204.266C107.085 204.401 107.293 204.424 107.476 204.335C107.66 204.25 107.795 204.056 107.881 203.753C107.968 203.448 107.98 203.119 107.916 202.769L107.503 202.531C107.416 202.48 107.36 202.42 107.336 202.351C107.312 202.282 107.316 202.191 107.348 202.077C107.381 201.963 107.422 201.893 107.473 201.868C107.524 201.842 107.594 201.854 107.681 201.905L108.233 202.224C108.331 202.28 108.39 202.352 108.412 202.439C108.487 202.718 108.527 202.997 108.533 203.275C108.541 203.555 108.509 203.82 108.438 204.07ZM107.253 211.084C107.221 211.195 107.176 211.276 107.118 211.327C107.06 211.378 107.002 211.386 106.944 211.353C106.924 211.341 106.904 211.325 106.884 211.304L101.513 204.94C101.478 204.898 101.456 204.844 101.445 204.78C101.433 204.718 101.436 204.655 101.455 204.591C101.486 204.48 101.531 204.399 101.589 204.349C101.647 204.298 101.705 204.289 101.763 204.323C101.783 204.334 101.803 204.351 101.823 204.372L107.194 210.735C107.229 210.778 107.252 210.83 107.264 210.892C107.274 210.956 107.271 211.02 107.253 211.084ZM105.527 214.311C105.435 214.633 105.302 214.885 105.128 215.066C104.956 215.252 104.752 215.354 104.517 215.373C104.281 215.393 104.027 215.324 103.754 215.166C103.499 215.019 103.284 214.812 103.109 214.546C102.935 214.284 102.755 213.926 102.566 213.471L101.685 211.331L101.17 213.14L101.643 213.413C101.731 213.464 101.787 213.524 101.811 213.593C101.835 213.662 101.831 213.753 101.798 213.867C101.766 213.981 101.724 214.051 101.673 214.076C101.622 214.102 101.553 214.089 101.465 214.039L100.737 213.618C100.644 213.565 100.584 213.506 100.556 213.441C100.529 213.38 100.529 213.303 100.556 213.208L101.379 210.314C101.406 210.22 101.444 210.163 101.493 210.143C101.545 210.127 101.616 210.146 101.709 210.199C101.804 210.254 101.866 210.314 101.894 210.379L103.047 213.18C103.209 213.572 103.354 213.864 103.479 214.056C103.607 214.253 103.761 214.403 103.941 214.507C104.174 214.642 104.382 214.664 104.564 214.576C104.749 214.491 104.884 214.297 104.97 213.994C105.057 213.689 105.069 213.36 105.005 213.01L104.592 212.771C104.504 212.721 104.449 212.661 104.424 212.592C104.4 212.523 104.405 212.432 104.437 212.318C104.469 212.204 104.511 212.134 104.562 212.108C104.613 212.083 104.682 212.095 104.77 212.146L105.322 212.465C105.419 212.521 105.479 212.593 105.501 212.68C105.576 212.959 105.616 213.238 105.621 213.516C105.629 213.796 105.598 214.061 105.527 214.311ZM103.868 220.144C103.8 220.386 103.668 220.451 103.472 220.338L101.088 218.962L100.896 219.637C100.869 219.732 100.83 219.787 100.779 219.803C100.73 219.823 100.659 219.806 100.566 219.753C100.474 219.699 100.413 219.64 100.385 219.575C100.359 219.515 100.359 219.437 100.386 219.343L100.578 218.667L99.7369 218.182L99.5804 218.732C99.5535 218.826 99.5145 218.882 99.4634 218.897C99.414 218.917 99.343 218.901 99.2504 218.847C99.1578 218.794 99.0974 218.735 99.0692 218.67C99.0428 218.609 99.0429 218.532 99.0698 218.437L99.5796 216.644C99.6064 216.55 99.6446 216.492 99.694 216.472C99.7451 216.457 99.8169 216.475 99.9095 216.529C100.002 216.582 100.062 216.639 100.088 216.7C100.116 216.765 100.117 216.844 100.09 216.939L99.9147 217.556L100.756 218.042L101.322 216.048C101.349 215.954 101.387 215.897 101.437 215.877C101.488 215.861 101.56 215.88 101.652 215.933C101.735 215.981 101.79 216.029 101.817 216.077L103.77 219.554C103.83 219.66 103.869 219.758 103.887 219.849C103.904 219.94 103.898 220.039 103.868 220.144ZM101.672 216.91L101.266 218.336L103.119 219.445L101.672 216.91Z" fill="white"/>
<path d="M115.113 182.374C115.099 182.425 115.078 182.454 115.051 182.463C115.025 182.473 114.987 182.464 114.938 182.436C114.888 182.407 114.856 182.376 114.841 182.341C114.827 182.309 114.827 182.268 114.841 182.217L114.89 182.046L113.099 180.082C113.057 180.036 113.032 179.988 113.023 179.938C113.014 179.889 113.018 179.832 113.037 179.767C113.055 179.703 113.08 179.658 113.112 179.632C113.143 179.607 113.183 179.598 113.234 179.606L115.477 179.98L115.525 179.811C115.54 179.761 115.56 179.73 115.586 179.719C115.614 179.711 115.652 179.721 115.701 179.75C115.751 179.778 115.782 179.808 115.797 179.841C115.812 179.875 115.812 179.918 115.798 179.968L115.561 180.8C115.547 180.85 115.526 180.88 115.499 180.888C115.472 180.899 115.435 180.89 115.385 180.861C115.336 180.833 115.304 180.801 115.288 180.767C115.274 180.735 115.274 180.693 115.289 180.643L115.378 180.329L113.415 179.988L114.989 181.697L115.052 181.474C115.067 181.424 115.087 181.394 115.113 181.383C115.141 181.374 115.179 181.384 115.228 181.413C115.278 181.441 115.309 181.472 115.324 181.504C115.339 181.539 115.339 181.581 115.325 181.632L115.113 182.374ZM114.663 183.96C114.646 184.019 114.622 184.061 114.59 184.084C114.56 184.109 114.519 184.118 114.469 184.11L112.271 183.755L112.233 183.89C112.218 183.941 112.198 183.97 112.17 183.979C112.144 183.989 112.106 183.98 112.057 183.952C112.007 183.923 111.975 183.892 111.96 183.857C111.946 183.825 111.946 183.784 111.96 183.733L112.184 182.946C112.199 182.896 112.219 182.865 112.245 182.854C112.273 182.846 112.311 182.856 112.36 182.884C112.41 182.913 112.441 182.943 112.456 182.976C112.471 183.01 112.471 183.053 112.457 183.103L112.371 183.403L112.9 183.496L113.206 182.418L112.782 181.958L112.706 182.227C112.691 182.277 112.671 182.307 112.643 182.315C112.617 182.326 112.579 182.317 112.53 182.288C112.48 182.26 112.448 182.228 112.433 182.194C112.419 182.162 112.419 182.12 112.433 182.07L112.645 181.327C112.659 181.277 112.679 181.246 112.706 181.235C112.733 181.227 112.771 181.237 112.821 181.265C112.87 181.294 112.902 181.324 112.916 181.357C112.931 181.391 112.931 181.434 112.917 181.484L112.881 181.609L114.504 183.403L114.622 182.987C114.637 182.936 114.657 182.906 114.683 182.895C114.711 182.887 114.749 182.897 114.798 182.925C114.848 182.954 114.88 182.984 114.894 183.016C114.909 183.051 114.909 183.094 114.895 183.144L114.663 183.96ZM114.414 183.721L113.449 182.679L113.201 183.551L114.402 183.763L114.414 183.721ZM113.85 186.818C113.836 186.868 113.815 186.898 113.788 186.906C113.762 186.917 113.724 186.908 113.674 186.879C113.625 186.851 113.593 186.819 113.578 186.785C113.564 186.752 113.564 186.711 113.578 186.661L113.731 186.122L111.899 185.065L111.586 186.165L112.245 186.546C112.291 186.573 112.321 186.605 112.334 186.641C112.347 186.678 112.345 186.727 112.327 186.788C112.31 186.848 112.288 186.886 112.261 186.899C112.234 186.913 112.197 186.906 112.15 186.879L111.355 186.42C111.306 186.392 111.273 186.36 111.258 186.326C111.244 186.293 111.244 186.252 111.259 186.202L111.824 184.214C111.838 184.163 111.859 184.133 111.885 184.122C111.912 184.114 111.95 184.124 112 184.152C112.049 184.181 112.081 184.211 112.095 184.243C112.11 184.278 112.111 184.32 112.096 184.371L111.994 184.731L113.826 185.789L113.928 185.429C113.943 185.378 113.963 185.348 113.989 185.337C114.017 185.328 114.055 185.339 114.104 185.367C114.154 185.396 114.185 185.426 114.2 185.458C114.215 185.493 114.215 185.535 114.201 185.586L113.85 186.818ZM112.917 190.1C112.903 190.151 112.882 190.18 112.855 190.188C112.828 190.199 112.791 190.19 112.741 190.162C112.692 190.133 112.66 190.102 112.645 190.067C112.63 190.035 112.631 189.993 112.645 189.943L112.807 189.374L110.975 188.316L110.8 188.93C110.786 188.98 110.765 189.01 110.738 189.018C110.711 189.029 110.674 189.02 110.624 188.991C110.575 188.963 110.543 188.931 110.528 188.897C110.513 188.864 110.514 188.823 110.528 188.773L110.972 187.211C110.986 187.161 111.006 187.13 111.033 187.12C111.06 187.111 111.098 187.121 111.148 187.15C111.197 187.178 111.229 187.209 111.243 187.241C111.258 187.276 111.258 187.318 111.244 187.369L111.069 187.982L112.902 189.04L113.063 188.471C113.078 188.42 113.098 188.39 113.124 188.379C113.152 188.371 113.19 188.381 113.239 188.409C113.289 188.438 113.32 188.468 113.335 188.501C113.35 188.535 113.35 188.578 113.336 188.628L112.917 190.1ZM112.35 192.095C112.284 192.328 112.178 192.505 112.031 192.626C111.886 192.747 111.71 192.804 111.503 192.797C111.296 192.791 111.071 192.718 110.828 192.578C110.585 192.438 110.388 192.267 110.237 192.066C110.086 191.866 109.987 191.651 109.941 191.419C109.896 191.188 109.907 190.956 109.973 190.723L110.271 189.675C110.285 189.625 110.306 189.594 110.332 189.584C110.359 189.575 110.398 189.585 110.447 189.614C110.497 189.642 110.528 189.673 110.542 189.705C110.557 189.74 110.558 189.782 110.543 189.833L110.473 190.082L112.305 191.139L112.376 190.89C112.39 190.84 112.41 190.809 112.437 190.799C112.464 190.79 112.502 190.8 112.551 190.829C112.601 190.857 112.633 190.888 112.647 190.92C112.662 190.955 112.662 190.997 112.648 191.048L112.35 192.095ZM110.378 190.415L110.26 190.829C110.21 191.005 110.201 191.179 110.233 191.349C110.267 191.521 110.342 191.681 110.458 191.831C110.575 191.982 110.732 192.113 110.928 192.227C111.124 192.34 111.301 192.4 111.457 192.408C111.615 192.416 111.747 192.375 111.855 192.286C111.963 192.196 112.042 192.063 112.092 191.887L112.21 191.473L110.378 190.415ZM110.466 180.991C110.452 181.041 110.431 181.071 110.404 181.079C110.377 181.09 110.339 181.081 110.29 181.052L109.535 180.617C109.488 180.59 109.459 180.558 109.446 180.521C109.433 180.484 109.435 180.435 109.452 180.375C109.47 180.314 109.492 180.277 109.519 180.263C109.546 180.249 109.583 180.256 109.63 180.283L110.249 180.64L110.417 180.046L108.585 178.989L108.436 179.513C108.422 179.564 108.401 179.593 108.374 179.602C108.348 179.612 108.31 179.603 108.26 179.575C108.211 179.546 108.179 179.515 108.164 179.48C108.149 179.448 108.15 179.407 108.164 179.356L108.557 177.973C108.572 177.923 108.592 177.892 108.618 177.881C108.645 177.873 108.684 177.883 108.733 177.912C108.783 177.94 108.814 177.97 108.828 178.003C108.843 178.037 108.844 178.08 108.829 178.13L108.68 178.655L110.512 179.713L110.681 179.119L110.062 178.762C110.016 178.735 109.986 178.703 109.973 178.666C109.96 178.629 109.962 178.581 109.98 178.52C109.997 178.459 110.019 178.422 110.046 178.408C110.074 178.395 110.111 178.401 110.157 178.428L110.912 178.864C110.962 178.893 110.993 178.923 111.007 178.955C111.022 178.99 111.023 179.032 111.008 179.083L110.466 180.991ZM109.663 183.815C109.649 183.866 109.628 183.895 109.601 183.903C109.574 183.914 109.536 183.905 109.487 183.877C109.438 183.848 109.405 183.817 109.39 183.782C109.376 183.75 109.376 183.708 109.391 183.658L109.436 183.498L107.604 182.44L107.559 182.6C107.544 182.651 107.524 182.68 107.496 182.688C107.47 182.699 107.432 182.69 107.383 182.662C107.333 182.633 107.301 182.602 107.286 182.567C107.272 182.535 107.272 182.493 107.286 182.443L107.485 181.745C107.499 181.694 107.52 181.664 107.546 181.653C107.573 181.645 107.612 181.655 107.661 181.683C107.71 181.712 107.742 181.742 107.756 181.774C107.771 181.809 107.772 181.852 107.757 181.902L107.699 182.107L108.516 182.578L108.831 181.471L108.014 180.999L107.956 181.204C107.941 181.254 107.921 181.283 107.893 181.292C107.867 181.303 107.829 181.294 107.78 181.265C107.73 181.237 107.698 181.205 107.683 181.17C107.669 181.138 107.669 181.097 107.683 181.046L107.882 180.348C107.896 180.298 107.917 180.267 107.943 180.256C107.97 180.248 108.009 180.258 108.058 180.287C108.107 180.315 108.139 180.346 108.153 180.378C108.168 180.412 108.169 180.455 108.154 180.505L108.109 180.665L109.941 181.723L109.986 181.563C110.001 181.513 110.021 181.482 110.047 181.471C110.075 181.463 110.113 181.473 110.162 181.502C110.212 181.53 110.243 181.56 110.258 181.593C110.273 181.627 110.273 181.67 110.259 181.72L110.06 182.419C110.046 182.469 110.025 182.498 109.998 182.507C109.971 182.518 109.934 182.509 109.884 182.48C109.835 182.452 109.803 182.42 109.787 182.385C109.773 182.353 109.773 182.312 109.788 182.261L109.846 182.057L109.103 181.628L108.788 182.735L109.531 183.164L109.589 182.96C109.604 182.909 109.624 182.879 109.65 182.868C109.678 182.86 109.716 182.87 109.765 182.898C109.815 182.927 109.846 182.957 109.861 182.989C109.876 183.024 109.876 183.066 109.862 183.117L109.663 183.815ZM109.162 185.576C109.11 185.762 109.037 185.904 108.943 186.004C108.849 186.105 108.742 186.16 108.621 186.17C108.499 186.181 108.371 186.148 108.237 186.07C108.084 185.982 107.971 185.853 107.897 185.682C107.823 185.512 107.793 185.319 107.809 185.106C107.756 185.172 107.689 185.213 107.608 185.231C107.54 185.245 107.474 185.253 107.41 185.254C107.348 185.255 107.271 185.254 107.181 185.248C107.088 185.243 107.02 185.24 106.976 185.241C106.863 185.243 106.796 185.282 106.775 185.358L106.757 185.42C106.743 185.47 106.722 185.5 106.695 185.508C106.668 185.519 106.63 185.51 106.581 185.482C106.532 185.453 106.499 185.422 106.484 185.387C106.47 185.355 106.47 185.313 106.485 185.263L106.53 185.103C106.556 185.014 106.598 184.95 106.657 184.912C106.717 184.876 106.806 184.858 106.924 184.859C106.992 184.86 107.08 184.865 107.19 184.873C107.291 184.879 107.369 184.882 107.425 184.882C107.482 184.883 107.54 184.879 107.599 184.868C107.668 184.856 107.725 184.827 107.771 184.781C107.818 184.736 107.854 184.669 107.879 184.582L107.965 184.279L107.206 183.841L107.124 184.13C107.109 184.181 107.089 184.21 107.061 184.218C107.035 184.229 106.997 184.22 106.948 184.192C106.898 184.163 106.866 184.132 106.851 184.097C106.837 184.065 106.837 184.023 106.851 183.973L107.106 183.079C107.12 183.029 107.14 182.998 107.167 182.987C107.194 182.979 107.232 182.989 107.282 183.018C107.331 183.046 107.363 183.076 107.377 183.109C107.392 183.143 107.392 183.186 107.378 183.236L107.301 183.508L109.133 184.565L109.21 184.294C109.224 184.244 109.245 184.213 109.271 184.202C109.298 184.194 109.337 184.204 109.386 184.232C109.435 184.261 109.467 184.291 109.481 184.324C109.496 184.358 109.497 184.401 109.482 184.451L109.162 185.576ZM108.237 184.436L108.109 184.888C107.995 185.288 108.071 185.565 108.336 185.718C108.465 185.792 108.578 185.799 108.676 185.738C108.775 185.678 108.851 185.556 108.903 185.373L109.038 184.899L108.237 184.436ZM108.104 189.299C108.09 189.35 108.069 189.379 108.042 189.387C108.015 189.398 107.977 189.389 107.928 189.361C107.879 189.332 107.846 189.301 107.831 189.266C107.817 189.234 107.817 189.192 107.832 189.142L107.871 189.004L106.553 188.243C106.274 188.082 106.089 187.881 105.998 187.638C105.907 187.397 105.903 187.128 105.987 186.832C106.072 186.535 106.206 186.345 106.39 186.262C106.573 186.179 106.804 186.219 107.083 186.38L108.401 187.141L108.44 187.003C108.454 186.952 108.475 186.922 108.501 186.911C108.528 186.903 108.566 186.913 108.616 186.941C108.665 186.97 108.697 187 108.711 187.032C108.726 187.067 108.727 187.109 108.712 187.16L108.507 187.88C108.493 187.931 108.472 187.96 108.445 187.969C108.419 187.979 108.381 187.97 108.331 187.942C108.282 187.913 108.25 187.882 108.235 187.847C108.221 187.815 108.221 187.774 108.235 187.723L108.306 187.474L107.028 186.737C106.824 186.619 106.664 186.582 106.547 186.627C106.43 186.672 106.342 186.797 106.284 187.003C106.225 187.209 106.227 187.386 106.289 187.534C106.351 187.682 106.484 187.815 106.688 187.933L107.966 188.671L108.037 188.421C108.051 188.371 108.071 188.341 108.098 188.33C108.125 188.321 108.163 188.331 108.213 188.36C108.262 188.388 108.294 188.419 108.308 188.451C108.323 188.486 108.323 188.528 108.309 188.579L108.104 189.299Z" fill="white"/>
<rect width="39.3593" height="26.2396" rx="2.95935" transform="matrix(-0.273456 0.961885 -0.866025 -0.5 239.205 256.875)" fill="url(#paint4_linear_13_194)"/>
<path fill-rule="evenodd" clip-rule="evenodd" d="M233.597 275.674L228.854 268.039C228.854 268.039 223.18 266.721 219.204 262.467L211.327 262.816L216.812 270.88C216.812 270.88 221.002 271.341 226.463 276.452C226.463 276.452 233.597 275.674 233.597 275.674Z" stroke="black" stroke-width="0.769431" stroke-linejoin="bevel"/>
<path d="M232.767 253.157L228.582 267.88" stroke="black" stroke-width="0.769431" stroke-linejoin="bevel"/>
<path d="M226.31 275.873L222.004 291.016" stroke="black" stroke-width="0.769431" stroke-linejoin="bevel"/>
<path d="M223.678 247.91L219.492 262.633" stroke="black" stroke-width="0.769431" stroke-linejoin="bevel"/>
<path d="M217.22 270.626L212.915 285.769" stroke="black" stroke-width="0.769431" stroke-linejoin="bevel"/>
<defs>
<filter id="filter0_b_13_194" x="15.7308" y="91.9654" width="242.524" height="230.782" filterUnits="userSpaceOnUse" color-interpolation-filters="sRGB">
<feFlood flood-opacity="0" result="BackgroundImageFix"/>
<feGaussianBlur in="BackgroundImage" stdDeviation="3.45553"/>
<feComposite in2="SourceAlpha" operator="in" result="effect1_backgroundBlur_13_194"/>
<feBlend mode="normal" in="SourceGraphic" in2="effect1_backgroundBlur_13_194" result="shape"/>
</filter>
<filter id="filter1_b_13_194" x="70.6342" y="-8.65088" width="238.867" height="333.808" filterUnits="userSpaceOnUse" color-interpolation-filters="sRGB">
<feFlood flood-opacity="0" result="BackgroundImageFix"/>
<feGaussianBlur in="BackgroundImage" stdDeviation="5.9187"/>
<feComposite in2="SourceAlpha" operator="in" result="effect1_backgroundBlur_13_194"/>
<feBlend mode="normal" in="SourceGraphic" in2="effect1_backgroundBlur_13_194" result="shape"/>
</filter>
<linearGradient id="paint0_linear_13_194" x1="111.716" y1="231.137" x2="147.762" y2="-23.9392" gradientUnits="userSpaceOnUse">
<stop stop-color="#C9FA49"/>
<stop offset="1" stop-color="#5C5C5C" stop-opacity="0"/>
</linearGradient>
<radialGradient id="paint1_radial_13_194" cx="0" cy="0" r="1" gradientUnits="userSpaceOnUse" gradientTransform="translate(7.69429 69.5447) rotate(53.0646) scale(362.461 732.999)">
<stop stop-color="white" stop-opacity="0.3"/>
<stop offset="1" stop-opacity="0"/>
</radialGradient>
<linearGradient id="paint2_linear_13_194" x1="88.7805" y1="0" x2="88.7805" y2="345.06" gradientUnits="userSpaceOnUse">
<stop stop-color="white"/>
<stop offset="1" stop-opacity="0"/>
</linearGradient>
<radialGradient id="paint3_radial_13_194" cx="0" cy="0" r="1" gradientUnits="userSpaceOnUse" gradientTransform="translate(154.671 22.4969) rotate(56.2349) scale(178.531 310.553)">
<stop stop-color="#353535"/>
<stop offset="1"/>
</radialGradient>
<linearGradient id="paint4_linear_13_194" x1="55.6358" y1="13.2184" x2="-4.37301" y2="37.2142" gradientUnits="userSpaceOnUse">
<stop stop-color="white"/>
<stop offset="0.269564" stop-color="white"/>
<stop offset="0.44277" stop-color="#ADADAD"/>
<stop offset="0.683638" stop-color="white"/>
<stop offset="1"/>
</linearGradient>
</defs>
</svg>
